<svg width="131" height="37" viewBox="0 0 131 37" fill="none" xmlns="http://www.w3.org/2000/svg">
<path d="M46.3681 20.8353C47.1811 21.6616 48.1858 22.075 49.3816 22.075C50.5768 22.075 51.5754 21.6641 52.3763 20.8451C53.1778 20.0227 53.5787 19.0006 53.5787 17.7744C53.5787 16.5478 53.1778 15.5261 52.3763 14.7089C51.5754 13.8915 50.5768 13.4827 49.3816 13.4827C48.1858 13.4827 47.1811 13.8947 46.3681 14.7187C45.554 15.5419 45.1475 16.5603 45.1475 17.7744C45.1475 18.9886 45.554 20.0082 46.3681 20.8353ZM49.3816 24.8296C48.3672 24.8296 47.4163 24.6485 46.5272 24.2887C45.6386 23.9261 44.8758 23.4335 44.2413 22.8105C43.6056 22.1878 43.1047 21.4406 42.7383 20.5659C42.3728 19.6921 42.1903 18.7613 42.1903 17.7744C42.1903 16.7876 42.3728 15.8555 42.7383 14.9823C43.1047 14.1079 43.6056 13.3612 44.2413 12.7377C44.8758 12.1149 45.6386 11.6225 46.5272 11.2616C47.4163 10.8995 48.3672 10.7184 49.3816 10.7184C50.3893 10.7184 51.336 10.8982 52.2215 11.2566C53.1076 11.614 53.8643 12.1076 54.494 12.733C55.1231 13.3587 55.6184 14.1068 55.982 14.9782C56.3443 15.8482 56.5264 16.7816 56.5264 17.7744C56.5264 18.7673 56.3443 19.6994 55.982 20.5709C55.6184 21.4418 55.1231 22.1903 54.494 22.8155C53.8643 23.4412 53.1076 23.9336 52.2215 24.2936C51.336 24.6498 50.3893 24.8296 49.3816 24.8296Z" fill="#10109B"/>
<path d="M63.0233 24.8296C62.2534 24.8296 61.5262 24.6863 60.8445 24.4017C60.1623 24.1147 59.5774 23.7258 59.0891 23.2355C58.6011 22.7449 58.2164 22.1563 57.9346 21.471C57.6526 20.7868 57.5116 20.0592 57.5116 19.2924C57.5116 18.5254 57.6526 17.8024 57.9346 17.1238C58.2164 16.4437 58.6011 15.8615 59.0891 15.3793C59.5774 14.895 60.164 14.5127 60.8494 14.2319C61.5341 13.9525 62.266 13.8127 63.0421 13.8127C64.3812 13.8127 65.5312 14.2041 66.492 14.9873C67.4533 15.7705 68.0618 16.8058 68.3182 18.0961H65.5299C65.3049 17.5795 64.969 17.179 64.5251 16.8921C64.0812 16.6061 63.5803 16.4632 63.0233 16.4632C62.266 16.4632 61.6315 16.7353 61.1222 17.2793C60.6116 17.823 60.357 18.4976 60.357 19.3022C60.357 20.1067 60.6135 20.7885 61.1263 21.3445C61.6394 21.9004 62.2726 22.1783 63.0233 22.1783C63.5931 22.1783 64.094 22.0275 64.5251 21.7262C64.957 21.4248 65.2921 20.9946 65.5299 20.4348H68.3558C68.1117 21.7481 67.4998 22.8094 66.5205 23.6175C65.5409 24.4274 64.375 24.8296 63.0233 24.8296Z" fill="#10109B"/>
<path d="M74.6182 24.8296C73.8487 24.8296 73.1218 24.6863 72.4398 24.4017C71.7577 24.1147 71.1721 23.7258 70.6837 23.2355C70.1958 22.7449 69.8103 22.1563 69.5285 21.471C69.2473 20.7868 69.1063 20.0592 69.1063 19.2924C69.1063 18.5254 69.2473 17.8024 69.5285 17.1238C69.8103 16.4437 70.1958 15.8615 70.6837 15.3793C71.1721 14.895 71.7595 14.5127 72.4444 14.2319C73.1294 13.9525 73.8609 13.8127 74.6368 13.8127C75.9759 13.8127 77.1259 14.2041 78.087 14.9873C79.0474 15.7705 79.6567 16.8058 79.9135 18.0961H77.1249C76.8998 17.5795 76.5639 17.179 76.1198 16.8921C75.6759 16.6061 75.175 16.4632 74.6182 16.4632C73.8609 16.4632 73.2271 16.7353 72.7169 17.2793C72.2063 17.823 71.952 18.4976 71.952 19.3022C71.952 20.1067 72.2084 20.7885 72.7212 21.3445C73.2347 21.9004 73.8669 22.1783 74.6182 22.1783C75.1872 22.1783 75.6889 22.0275 76.1198 21.7262C76.5517 21.4248 76.8868 20.9946 77.1249 20.4348H79.9507C79.7067 21.7481 79.0947 22.8094 78.1148 23.6175C77.1356 24.4274 75.9699 24.8296 74.6182 24.8296Z" fill="#10109B"/>
<path d="M84.3492 21.3445C84.884 21.8877 85.5581 22.1601 86.3719 22.1601C87.186 22.1601 87.8599 21.8902 88.3951 21.3493C88.9304 20.8086 89.1982 20.126 89.1982 19.302C89.1982 18.4782 88.9304 17.7962 88.3951 17.2555C87.8599 16.7146 87.186 16.4437 86.3719 16.4437C85.5581 16.4437 84.884 16.7158 84.3492 17.2603C83.8137 17.8047 83.5459 18.4854 83.5459 19.302C83.5459 20.1187 83.8137 20.8013 84.3492 21.3445ZM89.8552 14.0861H91.9584V24.5185H89.7523L89.5079 23.5843C88.5627 24.4152 87.4425 24.8296 86.1469 24.8296C85.1202 24.8296 84.1907 24.5913 83.3576 24.1134C82.5253 23.6345 81.8754 22.9731 81.4059 22.1271C80.9366 21.2813 80.701 20.3398 80.701 19.302C80.701 18.2716 80.9366 17.3355 81.4059 16.496C81.8754 15.6574 82.5253 14.9999 83.3576 14.5248C84.1907 14.0502 85.1202 13.8127 86.1469 13.8127C87.4672 13.8127 88.6032 14.2367 89.5552 15.0862L89.8552 14.0861Z" fill="#10109B"/>
<path d="M97.9113 24.8296C96.6083 24.8296 95.5587 24.4892 94.7607 23.8058C93.9623 23.1237 93.5603 22.2233 93.5541 21.1039H96.2858C96.2918 21.5499 96.4535 21.8927 96.7706 22.132C97.0863 22.3708 97.5039 22.4898 98.0238 22.4898C98.4363 22.4898 98.7859 22.3994 99.0702 22.2171C99.3545 22.0348 99.4977 21.7759 99.4977 21.443C99.4977 21.274 99.4488 21.1263 99.3514 21.0006C99.2545 20.8747 99.1028 20.7698 98.8972 20.6848C98.6897 20.5999 98.4863 20.5331 98.2866 20.4859C98.086 20.4396 97.8229 20.3873 97.498 20.3315C97.204 20.2803 96.9568 20.2343 96.7564 20.194C96.5553 20.1528 96.3125 20.0907 96.0282 20.0094C95.7435 19.9279 95.504 19.8381 95.3099 19.7408C95.1152 19.6436 94.9108 19.5135 94.695 19.3495C94.4789 19.1854 94.3067 19.0056 94.1785 18.8075C94.0503 18.6094 93.9437 18.3688 93.8595 18.0864C93.7748 17.8024 93.7325 17.4913 93.7325 17.1522C93.7325 16.1641 94.118 15.361 94.8875 14.7417C95.6576 14.1226 96.6653 13.8127 97.9113 13.8127C99.1627 13.8127 100.168 14.1317 100.925 14.7697C101.682 15.4083 102.064 16.2491 102.07 17.2932H99.4034C99.3972 16.8849 99.2576 16.5762 98.9859 16.3684C98.7134 16.1616 98.3302 16.0583 97.8355 16.0583C97.4036 16.0583 97.0644 16.1496 96.8177 16.3307C96.5697 16.513 96.4462 16.7548 96.4462 17.0574C96.4462 17.1713 96.4661 17.2733 96.5067 17.3644C96.5472 17.4556 96.6197 17.5338 96.7233 17.5994C96.8266 17.6657 96.9234 17.7222 97.014 17.7694C97.1049 17.8169 97.2428 17.8642 97.4274 17.9105C97.6117 17.958 97.7616 17.9932 97.8779 18.0152C97.9939 18.0378 98.1706 18.0706 98.4076 18.1144C99.4162 18.2971 100.142 18.4854 100.586 18.68C101.708 19.1829 102.268 20.063 102.268 21.3203C102.268 22.3836 101.869 23.2344 101.075 23.8728C100.28 24.5112 99.225 24.8296 97.9113 24.8296Z" fill="#10109B"/>
<path d="M103.901 14.1051H106.707V24.5381H103.901V14.1051Z" fill="#10109B"/>
<path d="M106.952 11.563C106.952 12.4814 106.212 13.2227 105.3 13.2227C104.387 13.2227 103.647 12.4814 103.647 11.563C103.647 10.6469 104.387 9.90372 105.3 9.90372C106.212 9.90372 106.952 10.6469 106.952 11.563Z" fill="#10109B"/>
<path d="M111.908 21.3823C112.428 21.9134 113.091 22.1783 113.899 22.1783C114.707 22.1783 115.37 21.9134 115.89 21.3823C116.409 20.8511 116.668 20.1638 116.668 19.3204C116.668 18.4782 116.409 17.7914 115.89 17.2603C115.37 16.7281 114.707 16.4632 113.899 16.4632C113.091 16.4632 112.428 16.7281 111.908 17.2603C111.389 17.7914 111.129 18.4782 111.129 19.3204C111.129 20.1638 111.389 20.8511 111.908 21.3823ZM113.899 24.8296C112.841 24.8296 111.884 24.5915 111.026 24.1134C110.169 23.6345 109.497 22.9747 109.012 22.132C108.527 21.2887 108.285 20.3533 108.285 19.3204C108.285 18.2784 108.527 17.3358 109.012 16.496C109.497 15.6574 110.169 15.0001 111.026 14.5248C111.884 14.0502 112.841 13.8127 113.899 13.8127C114.95 13.8127 115.905 14.0502 116.763 14.5248C117.62 15.0001 118.294 15.6587 118.782 16.5003C119.269 17.3438 119.514 18.2844 119.514 19.3204C119.514 20.3533 119.269 21.2887 118.782 22.132C118.294 22.9747 117.62 23.6345 116.763 24.1134C115.905 24.5915 114.95 24.8296 113.899 24.8296Z" fill="#10109B"/>
<path d="M127.005 13.8599C128.183 13.8599 129.118 14.2541 129.813 15.0435C130.508 15.8333 130.855 16.8907 130.855 18.2175V24.5376H128.048V18.6698C128.048 17.1114 127.443 16.3305 126.236 16.3305C125.516 16.3305 124.948 16.5742 124.531 17.062C124.115 17.5494 123.907 18.215 123.907 19.0577V24.5376H121.1V14.1048H123.024L123.569 15.3972C123.97 14.9195 124.469 14.5428 125.067 14.2695C125.664 13.9965 126.311 13.8599 127.005 13.8599Z" fill="#10109B"/>
<path d="M27.8508 17.9547C28.5585 16.238 28.8061 14.4157 28.638 12.642C27.736 12.8649 26.88 13.3243 26.1749 14.0322C25.1465 15.0659 24.6324 16.4203 24.6324 17.7741C24.6324 19.5795 23.9472 21.3856 22.5759 22.7628C21.218 24.1276 19.4416 24.8139 17.6619 24.8271C22.1241 24.8062 26.1417 22.0993 27.8508 17.9547Z" fill="#10109B"/>
<path d="M28.638 12.6419C28.8062 14.4157 28.5585 16.238 27.8509 17.9547C26.1416 22.0993 22.1241 24.8062 17.662 24.8273C15.8543 24.8404 14.0426 24.1595 12.6603 22.7796C18.1126 28.239 26.9373 28.2336 32.3822 22.7636L33.6246 21.5161C35.6812 19.4497 35.6812 16.099 33.6246 14.0324C32.5973 13.0008 31.2524 12.4878 29.9067 12.4878C29.4805 12.4878 29.0542 12.5393 28.638 12.6419ZM12.6603 22.7796C12.6545 22.774 12.6492 22.7686 12.6436 22.763C12.6492 22.7686 12.6547 22.774 12.6603 22.7796Z" fill="url(#paint0_linear_162_2454)"/>
<path d="M7.36854 17.5929C6.66038 19.3098 6.41304 21.1319 6.5813 22.9062C7.48313 22.6833 8.33912 22.2241 9.04377 21.516C10.072 20.4825 10.5867 19.1287 10.5867 17.774C10.586 15.9689 11.2717 14.1628 12.643 12.7854C14.0145 11.407 15.8122 10.7182 17.6099 10.7186C13.1263 10.7186 9.08424 13.4319 7.36854 17.5929Z" fill="#10109B"/>
<path d="M2.83645 12.7853L1.59458 14.0329C-0.461783 16.0995 -0.461783 19.4501 1.59458 21.5165C2.94711 22.8746 4.85048 23.334 6.58125 22.9068C6.41299 21.1324 6.66053 19.3103 7.3687 17.5934C9.08419 13.4324 13.1263 10.7193 17.61 10.7193C19.4071 10.7199 21.2041 11.4087 22.5754 12.7859C19.8499 10.0479 16.2777 8.67885 12.7055 8.67885C9.13353 8.67864 5.56174 10.0475 2.83645 12.7853Z" fill="url(#paint1_linear_162_2454)"/>
<path d="M13.8852 1.68569L2.83643 12.7845C8.28702 7.30891 17.1246 7.30891 22.5754 12.7851C23.9449 14.1608 24.6307 15.9632 24.6322 17.7666C24.6332 15.2806 26.3382 13.2105 28.638 12.6422C28.3976 10.118 27.309 7.68826 25.4479 5.81828L21.3342 1.68569C20.3056 0.652382 18.9576 0.135725 17.6094 0.135725C16.2614 0.135725 14.9134 0.652382 13.8852 1.68569Z" fill="url(#paint2_linear_162_2454)"/>
<path d="M6.58124 22.9065C6.82135 25.4308 7.90961 27.8592 9.77087 29.7285L13.8844 33.8613C15.9418 35.9277 19.277 35.9277 21.3336 33.8613L32.3821 22.7628C26.9318 28.2381 18.0944 28.2381 12.6434 22.7617C11.2739 21.386 10.5878 19.5838 10.5864 17.7802C10.5856 20.2664 8.8804 22.3384 6.58124 22.9065Z" fill="url(#paint3_linear_162_2454)"/>
<path d="M84.3026 30.5103C84.8676 30.5103 85.3474 30.6452 85.742 30.9152C86.1408 31.1812 86.4399 31.5533 86.6393 32.0315C86.8387 32.5096 86.9384 33.0649 86.9384 33.6973V33.8188C86.9384 34.4434 86.8367 34.9949 86.6331 35.473C86.4337 35.9512 86.1367 36.3252 85.742 36.5951C85.3474 36.865 84.8717 37 84.3151 37C83.5341 37 82.9213 36.7359 82.4768 36.2076L82.402 36.8843H81V28H82.5516V31.2217C82.9836 30.7474 83.5673 30.5103 84.3026 30.5103ZM85.3868 33.6973C85.3868 33.0919 85.2726 32.606 85.0441 32.2397C84.8198 31.8695 84.4418 31.6844 83.91 31.6844C83.2661 31.6844 82.8133 31.9467 82.5516 32.4711V35.0276C82.8175 35.5598 83.2744 35.8258 83.9225 35.8258C84.4418 35.8258 84.8156 35.6465 85.0441 35.2879C85.2726 34.9254 85.3868 34.4357 85.3868 33.8188V33.6973Z" fill="#D13BC7"/>
<path d="M93.7742 30.626V36.8843H92.3098L92.2724 36.2654C91.8321 36.7551 91.2027 37 90.3843 37C89.6864 37 89.1402 36.8111 88.7455 36.4332C88.3509 36.0553 88.1535 35.4672 88.1535 34.669V30.626H89.7051V34.6806C89.7051 35.0893 89.8007 35.3824 89.9918 35.5598C90.187 35.7333 90.4425 35.8201 90.7582 35.8201C91.4769 35.8201 91.9629 35.5829 92.2164 35.1086V30.626H93.7742Z" fill="#D13BC7"/>
<path d="M97.6251 34.2699C96.8524 34.1195 96.2563 33.8978 95.8367 33.6048C95.4172 33.3117 95.2074 32.9145 95.2074 32.4132C95.2074 32.0701 95.3133 31.7539 95.5252 31.4647C95.7412 31.1716 96.0465 30.9402 96.4412 30.7706C96.84 30.597 97.299 30.5103 97.8183 30.5103C98.3708 30.5103 98.8506 30.597 99.2577 30.7706C99.669 30.9441 99.9847 31.1832 100.205 31.4878C100.425 31.7886 100.535 32.1279 100.535 32.5058H98.9835C98.9835 32.34 98.9379 32.1877 98.8465 32.0488C98.7592 31.9062 98.6284 31.7924 98.4539 31.7076C98.2794 31.6228 98.0675 31.5803 97.8183 31.5803C97.4652 31.5803 97.1931 31.6536 97.002 31.8001C96.8109 31.9467 96.7154 32.1298 96.7154 32.3496C96.7154 32.4884 96.7548 32.606 96.8337 32.7024C96.9168 32.7988 97.0581 32.8856 97.2575 32.9627C97.4569 33.0398 97.7331 33.1131 98.0862 33.1825C98.6346 33.2905 99.0895 33.4216 99.4509 33.5758C99.8123 33.7301 100.091 33.9306 100.286 34.1774C100.481 34.4242 100.579 34.7326 100.579 35.1028C100.579 35.4692 100.465 35.7969 100.236 36.0861C100.012 36.3753 99.6918 36.6009 99.2764 36.7629C98.861 36.921 98.3812 37 97.837 37C97.2471 37 96.7361 36.8997 96.3041 36.6992C95.8721 36.4987 95.5439 36.2384 95.3195 35.9184C95.0952 35.5983 94.9831 35.2609 94.9831 34.9062H96.4848C96.5014 35.2571 96.6406 35.5154 96.9023 35.6812C97.1682 35.847 97.488 35.9299 97.8619 35.9299C98.2399 35.9299 98.5328 35.8625 98.7405 35.7275C98.9524 35.5887 99.0583 35.4055 99.0583 35.178C99.0583 35.0315 99.0209 34.9062 98.9462 34.8021C98.8714 34.6979 98.7281 34.6015 98.5162 34.5129C98.3085 34.4242 98.0115 34.3432 97.6251 34.2699Z" fill="#D13BC7"/>
<path d="M102.766 28.2314C103.036 28.2314 103.25 28.3046 103.408 28.4512C103.566 28.5938 103.645 28.777 103.645 29.0006C103.645 29.2204 103.566 29.4017 103.408 29.5443C103.25 29.687 103.036 29.7584 102.766 29.7584C102.496 29.7584 102.282 29.6889 102.124 29.5501C101.966 29.4075 101.887 29.2243 101.887 29.0006C101.887 28.777 101.966 28.5938 102.124 28.4512C102.282 28.3046 102.496 28.2314 102.766 28.2314ZM101.987 36.8843V30.626H103.539V36.8843H101.987Z" fill="#D13BC7"/>
<path d="M108.611 30.5103C109.296 30.5103 109.824 30.6954 110.194 31.0656C110.568 31.4319 110.754 32.0257 110.754 32.847V36.8843H109.203V32.8355C109.203 32.419 109.105 32.124 108.91 31.9505C108.719 31.7731 108.424 31.6844 108.025 31.6844C107.734 31.6844 107.475 31.75 107.246 31.8811C107.018 32.0122 106.835 32.1954 106.698 32.4306V36.8843H105.146V30.626H106.604L106.654 31.349C106.895 31.079 107.182 30.8728 107.514 30.7301C107.847 30.5835 108.212 30.5103 108.611 30.5103Z" fill="#D13BC7"/>
<path d="M117.97 34.2063H113.577C113.606 34.5264 113.696 34.8098 113.845 35.0566C113.995 35.3033 114.196 35.4961 114.45 35.635C114.707 35.7738 115.006 35.8432 115.347 35.8432C116.045 35.8432 116.606 35.5887 117.029 35.0797L117.858 35.8258C117.613 36.1613 117.272 36.4409 116.836 36.6645C116.4 36.8882 115.872 37 115.253 37C114.597 37 114.024 36.8689 113.534 36.6067C113.043 36.3406 112.667 35.9781 112.406 35.5193C112.144 35.0604 112.013 34.5456 112.013 33.9749V33.7378C112.013 33.0938 112.146 32.5289 112.412 32.0431C112.678 31.5533 113.043 31.1754 113.509 30.9094C113.974 30.6433 114.497 30.5103 115.079 30.5103C115.715 30.5103 116.248 30.6395 116.68 30.8978C117.112 31.1562 117.434 31.5186 117.646 31.9852C117.862 32.4479 117.97 32.9859 117.97 33.599V34.2063ZM116.437 33.0553C116.417 32.6504 116.298 32.3188 116.082 32.0604C115.866 31.7982 115.53 31.6671 115.073 31.6671C114.666 31.6671 114.337 31.7982 114.088 32.0604C113.839 32.3226 113.679 32.6909 113.608 33.1652H116.437V33.0553Z" fill="#D13BC7"/>
<path d="M121.454 34.2699C120.681 34.1195 120.085 33.8978 119.665 33.6048C119.246 33.3117 119.036 32.9145 119.036 32.4132C119.036 32.0701 119.142 31.7539 119.354 31.4647C119.57 31.1716 119.875 30.9402 120.27 30.7706C120.668 30.597 121.128 30.5103 121.647 30.5103C122.199 30.5103 122.679 30.597 123.086 30.7706C123.498 30.9441 123.813 31.1832 124.033 31.4878C124.254 31.7886 124.364 32.1279 124.364 32.5058H122.812C122.812 32.34 122.766 32.1877 122.675 32.0488C122.588 31.9062 122.457 31.7924 122.282 31.7076C122.108 31.6228 121.896 31.5803 121.647 31.5803C121.294 31.5803 121.022 31.6536 120.831 31.8001C120.639 31.9467 120.544 32.1298 120.544 32.3496C120.544 32.4884 120.583 32.606 120.662 32.7024C120.745 32.7988 120.887 32.8856 121.086 32.9627C121.285 33.0398 121.562 33.1131 121.915 33.1825C122.463 33.2905 122.918 33.4216 123.279 33.5758C123.641 33.7301 123.919 33.9306 124.114 34.1774C124.31 34.4242 124.407 34.7326 124.407 35.1028C124.407 35.4692 124.293 35.7969 124.065 36.0861C123.84 36.3753 123.52 36.6009 123.105 36.7629C122.69 36.921 122.21 37 121.666 37C121.076 37 120.565 36.8997 120.133 36.6992C119.701 36.4987 119.372 36.2384 119.148 35.9184C118.924 35.5983 118.812 35.2609 118.812 34.9062H120.313C120.33 35.2571 120.469 35.5154 120.731 35.6812C120.997 35.847 121.317 35.9299 121.69 35.9299C122.068 35.9299 122.361 35.8625 122.569 35.7275C122.781 35.5887 122.887 35.4055 122.887 35.178C122.887 35.0315 122.849 34.9062 122.775 34.8021C122.7 34.6979 122.557 34.6015 122.345 34.5129C122.137 34.4242 121.84 34.3432 121.454 34.2699Z" fill="#D13BC7"/>
<path d="M128.046 34.2699C127.274 34.1195 126.678 33.8978 126.258 33.6048C125.838 33.3117 125.629 32.9145 125.629 32.4132C125.629 32.0701 125.735 31.7539 125.946 31.4647C126.162 31.1716 126.468 30.9402 126.862 30.7706C127.261 30.597 127.72 30.5103 128.24 30.5103C128.792 30.5103 129.272 30.597 129.679 30.7706C130.09 30.9441 130.406 31.1832 130.626 31.4878C130.846 31.7886 130.956 32.1279 130.956 32.5058H129.405C129.405 32.34 129.359 32.1877 129.268 32.0488C129.18 31.9062 129.05 31.7924 128.875 31.7076C128.701 31.6228 128.489 31.5803 128.24 31.5803C127.886 31.5803 127.614 31.6536 127.423 31.8001C127.232 31.9467 127.137 32.1298 127.137 32.3496C127.137 32.4884 127.176 32.606 127.255 32.7024C127.338 32.7988 127.479 32.8856 127.679 32.9627C127.878 33.0398 128.154 33.1131 128.507 33.1825C129.056 33.2905 129.511 33.4216 129.872 33.5758C130.234 33.7301 130.512 33.9306 130.707 34.1774C130.902 34.4242 131 34.7326 131 35.1028C131 35.4692 130.886 35.7969 130.657 36.0861C130.433 36.3753 130.113 36.6009 129.698 36.7629C129.282 36.921 128.802 37 128.258 37C127.668 37 127.157 36.8997 126.725 36.6992C126.293 36.4987 125.965 36.2384 125.741 35.9184C125.516 35.5983 125.404 35.2609 125.404 34.9062H126.906C126.923 35.2571 127.062 35.5154 127.324 35.6812C127.589 35.847 127.909 35.9299 128.283 35.9299C128.661 35.9299 128.954 35.8625 129.162 35.7275C129.374 35.5887 129.48 35.4055 129.48 35.178C129.48 35.0315 129.442 34.9062 129.367 34.8021C129.293 34.6979 129.149 34.6015 128.937 34.5129C128.73 34.4242 128.433 34.3432 128.046 34.2699Z" fill="#D13BC7"/>
<defs>
<linearGradient id="paint0_linear_162_2454" x1="17.5787" y1="27.7204" x2="32.4823" y2="12.8847" gradientUnits="userSpaceOnUse">
<stop stop-color="#4B00C8"/>
<stop offset="1" stop-color="#E164AF"/>
</linearGradient>
<linearGradient id="paint1_linear_162_2454" x1="2.80475" y1="22.7319" x2="17.7082" y2="7.89644" gradientUnits="userSpaceOnUse">
<stop stop-color="#00B4FF"/>
<stop offset="1" stop-color="#1E32C8"/>
</linearGradient>
<linearGradient id="paint2_linear_162_2454" x1="23.6007" y1="18.8031" x2="10.1619" y2="5.4256" gradientUnits="userSpaceOnUse">
<stop stop-color="#1E32C8"/>
<stop offset="1" stop-color="#00B4FF"/>
</linearGradient>
<linearGradient id="paint3_linear_162_2454" x1="24.9958" y1="30.1831" x2="11.557" y2="16.8056" gradientUnits="userSpaceOnUse">
<stop stop-color="#E164AF"/>
<stop offset="1" stop-color="#4B00C8"/>
</linearGradient>
</defs>
</svg>
