<svg width="60" height="60" viewBox="0 0 60 60" fill="none" xmlns="http://www.w3.org/2000/svg">
<path fill-rule="evenodd" clip-rule="evenodd" d="M14.7036 36.9258C14.8799 35.9833 14.2291 34.7797 13.5693 33.5595C12.8149 32.1642 12.0486 30.7472 12.4935 29.6736C15.4229 22.6006 22.3252 17.9888 29.9816 17.9888C33.0428 17.9898 36.104 19.155 38.4436 21.4847L38.4605 21.5017C40.799 23.8402 41.9702 26.9039 41.9727 29.9694C41.9738 27.3042 43.1323 24.9201 44.9731 23.2805C45.2823 24.0528 45.7519 24.793 46.2151 25.5233C47.206 27.0851 48.1678 28.6013 47.469 30.2892C44.5502 37.3343 37.6898 41.9355 30.0704 41.9715C27.0676 41.9931 24.0585 40.8985 21.7241 38.6799C21.6492 38.6069 21.5747 38.5333 21.5005 38.4591C19.162 36.1206 17.9905 33.0573 17.988 29.9914C17.9871 32.7916 16.7084 35.2827 14.7036 36.9258ZM54.9892 38.6782C55.062 38.6072 55.1344 38.5356 55.2065 38.4635L57.3282 36.3429C60.84 32.8304 60.84 27.1349 57.3282 23.622C55.5739 21.8684 53.2773 20.9965 50.9794 20.9965C50.7041 20.9965 49.8307 21.1081 48.8127 21.2564C48.4019 16.9666 46.5429 12.8373 43.3656 9.65929L36.341 2.6346C34.5845 0.878166 32.2827 -6.10352e-05 29.9805 -6.10352e-05C27.6787 -6.10352e-05 25.3769 0.878166 23.6211 2.6346L4.75515 21.4996L4.7542 21.5006L2.63358 23.6212C-0.877861 27.1341 -0.877861 32.8297 2.63358 36.3422C4.94316 38.6507 8.19336 39.4316 11.1488 38.7054C11.5589 42.9963 13.4172 47.124 16.5954 50.3015L23.6197 57.3265C27.1329 60.8391 32.8281 60.8391 36.3399 57.3265L54.9892 38.6782ZM21.6067 14.5203C27.1458 14.5203 32.685 16.4394 37.1416 20.2772C31.7002 15.591 24.6448 13.7657 17.9461 14.8013C19.1585 14.6139 20.3826 14.5203 21.6067 14.5203Z" fill="white"/>
<path d="M44.9693 30.2438C46.0024 27.7492 46.3638 25.1013 46.1185 22.5238C44.8017 22.8478 43.5522 23.5154 42.523 24.544C41.0218 26.0461 40.2713 28.0142 40.2713 29.9813C40.2713 32.6049 39.271 35.2293 37.2692 37.2305C35.287 39.2137 32.6939 40.2109 30.096 40.2302C36.6098 40.1998 42.4744 36.2664 44.9693 30.2438Z" fill="#10109B"/>
<path d="M46.1184 22.5246C46.3641 25.102 46.0024 27.75 44.9695 30.2446C42.4744 36.2672 36.6097 40.2006 30.0962 40.2313C27.4573 40.2503 24.8127 39.2609 22.7949 37.2557C30.7538 45.1888 43.6359 45.181 51.584 37.2325L53.3978 35.4197C56.3998 32.417 56.3998 27.5481 53.3978 24.5451C51.8981 23.046 49.9349 22.3007 47.9704 22.3007C47.3484 22.3007 46.726 22.3754 46.1184 22.5246ZM22.7949 37.2557C22.7864 37.2476 22.7786 37.2398 22.7705 37.2316C22.7786 37.2398 22.7868 37.2476 22.7949 37.2557Z" fill="url(#paint0_linear_1762_6442)"/>
<path d="M15.0702 29.7183C14.0365 32.2132 13.6754 34.8609 13.921 37.4392C15.2375 37.1152 16.487 36.448 17.5156 35.419C19.0165 33.9172 19.7679 31.9501 19.7679 29.9814C19.767 27.3585 20.7679 24.734 22.7697 22.7325C24.7718 20.7295 27.3959 19.7286 30.0201 19.7292C23.4752 19.7292 17.5747 23.6719 15.0702 29.7183Z" fill="#10109B"/>
<path d="M8.45443 22.7318L6.6416 24.5447C3.63981 27.5477 3.63981 32.4165 6.6416 35.4193C8.61597 37.3927 11.3944 38.0603 13.9209 37.4394C13.6753 34.8611 14.0367 32.2134 15.0704 29.7185C17.5746 23.6721 23.4751 19.7297 30.0203 19.7297C32.6435 19.7306 35.2668 20.7315 37.2686 22.7327C33.29 18.7541 28.0755 16.7647 22.8609 16.7647C17.6467 16.7644 12.4327 18.7535 8.45443 22.7318Z" fill="url(#paint1_linear_1762_6442)"/>
<path d="M24.583 6.6036L8.45441 22.7314C16.411 14.7748 29.3117 14.7748 37.2685 22.7323C39.2676 24.7314 40.2688 27.3504 40.2709 29.9709C40.2724 26.3585 42.7613 23.3504 46.1184 22.5246C45.7676 18.8567 44.1784 15.326 41.4617 12.6087L35.4566 6.6036C33.9551 5.1021 31.9874 4.35134 30.0193 4.35134C28.0516 4.35134 26.0839 5.1021 24.583 6.6036Z" fill="url(#paint2_linear_1762_6442)"/>
<path d="M13.9209 37.4392C14.2714 41.1074 15.86 44.636 18.577 47.3524L24.5818 53.3578C27.5851 56.3605 32.4536 56.3605 35.4557 53.3578L51.584 37.2304C43.6277 45.1867 30.7273 45.1867 22.7701 37.2289C20.7711 35.2298 19.7696 32.611 19.7674 29.9902C19.7662 33.6029 17.2771 36.6137 13.9209 37.4392Z" fill="url(#paint3_linear_1762_6442)"/>
<defs>
<linearGradient id="paint0_linear_1762_6442" x1="29.9745" y1="44.4352" x2="51.6314" y2="22.7785" gradientUnits="userSpaceOnUse">
<stop stop-color="#4B00C8"/>
<stop offset="1" stop-color="#E164AF"/>
</linearGradient>
<linearGradient id="paint1_linear_1762_6442" x1="8.40815" y1="37.1854" x2="30.0647" y2="15.5289" gradientUnits="userSpaceOnUse">
<stop stop-color="#00B4FF"/>
<stop offset="1" stop-color="#1E32C8"/>
</linearGradient>
<linearGradient id="paint2_linear_1762_6442" x1="38.7652" y1="31.4771" x2="19.237" y2="11.949" gradientUnits="userSpaceOnUse">
<stop stop-color="#1E32C8"/>
<stop offset="1" stop-color="#00B4FF"/>
</linearGradient>
<linearGradient id="paint3_linear_1762_6442" x1="40.8018" y1="48.013" x2="21.2735" y2="28.4848" gradientUnits="userSpaceOnUse">
<stop stop-color="#E164AF"/>
<stop offset="1" stop-color="#4B00C8"/>
</linearGradient>
</defs>
</svg>
